<?xml version="1.0" standalone="no"?>
<!DOCTYPE svg PUBLIC "-//W3C//DTD SVG 20010904//EN"
 "http://www.w3.org/TR/2001/REC-SVG-20010904/DTD/svg10.dtd">
<svg version="1.0" xmlns="http://www.w3.org/2000/svg"
 width="270.000000pt" height="360.000000pt" viewBox="0 0 270.000000 360.000000"
 preserveAspectRatio="xMidYMid meet">

<g transform="translate(0.000000,360.000000) scale(0.100000,-0.100000)"
fill="#000000" stroke="none">
<path d="M1275 3391 c-51 -23 -92 -87 -134 -211 -13 -36 -29 -78 -36 -95 -63
-141 -67 -155 -63 -197 3 -24 8 -51 12 -60 7 -15 3 -18 -27 -18 -32 0 -40 -6
-69 -47 l-33 -48 -3 48 -3 47 -132 0 -132 0 -277 -395 -278 -394 0 -341 0
-340 275 0 c221 0 277 3 281 13 4 12 13 12 57 0 36 -9 124 -13 299 -13 l247 0
3 68 3 67 36 -65 36 -65 396 -3 397 -2 0 97 0 97 67 -97 66 -97 169 0 c133 0
168 3 162 13 -5 6 -46 63 -92 126 l-84 113 25 27 c47 50 62 91 62 171 0 83
-20 133 -72 182 -35 33 -109 67 -145 68 l-28 0 0 80 0 80 70 0 69 0 3 153 3
152 53 3 52 3 0 154 0 155 -483 -7 c-346 -4 -486 -3 -491 5 -3 6 5 27 19 48
25 37 30 60 26 120 -2 24 8 46 37 84 91 120 110 206 58 258 -25 26 -32 27
-124 27 -78 0 -104 4 -126 18 -31 21 -121 31 -151 18z m114 -107 c19 -25 21
-25 119 -18 66 4 101 3 106 -4 10 -17 -12 -63 -76 -150 -61 -84 -62 -88 -43
-148 5 -16 -2 -31 -25 -58 -26 -29 -33 -47 -37 -95 -3 -34 0 -81 7 -108 6 -26
15 -106 20 -178 5 -89 14 -148 28 -187 11 -32 35 -111 53 -175 18 -65 41 -130
51 -144 15 -23 16 -28 3 -39 -20 -17 -48 -9 -61 18 -8 17 -13 20 -17 10 -3 -7
-6 -1 -6 14 -1 15 -5 30 -11 33 -5 3 -10 24 -10 45 0 26 -13 62 -40 112 -22
40 -40 82 -40 94 0 11 -18 65 -40 120 l-39 99 3 -195 c2 -107 7 -215 11 -240
9 -58 -7 -100 -37 -100 -22 0 -23 4 -24 88 -1 48 -9 111 -18 141 -9 30 -16 87
-16 126 0 68 -22 170 -41 189 -16 17 -10 121 11 182 l19 59 -59 56 c-33 30
-60 60 -60 65 0 5 11 29 25 53 14 23 25 49 25 56 0 7 9 24 21 39 11 14 18 30
15 35 -3 5 1 14 9 21 9 7 13 21 10 31 -3 9 -1 20 5 24 5 3 10 15 10 26 0 19
33 92 52 117 19 22 75 15 97 -14z m-557 -709 l3 -144 100 144 100 144 63 1 62
0 0 -365 0 -365 -65 0 -65 0 -2 245 -3 246 -165 -242 -165 -242 -5 240 -5 240
-137 -202 c-76 -110 -151 -220 -168 -243 l-30 -42 -81 0 -80 0 19 28 c10 15
126 179 256 365 l237 337 64 0 64 0 3 -145z m938 -155 l0 -300 110 0 110 0 0
-65 0 -65 -180 0 -180 0 0 365 0 365 70 0 70 0 0 -300z m658 239 l-3 -61 -127
1 -128 2 0 -90 0 -91 70 0 70 0 0 -65 0 -65 -70 0 -70 0 0 -150 0 -151 -67 3
-68 3 -3 363 -2 362 200 0 201 0 -3 -61z m-2146 -806 l3 -108 93 -3 92 -3 0
61 0 60 -46 0 -45 0 3 48 3 47 90 0 90 0 3 -262 2 -263 -50 0 -50 0 0 110 0
110 -95 0 -95 0 0 -110 0 -110 -45 0 -45 0 0 265 0 265 45 0 44 0 3 -107z
m415 -85 c2 -110 7 -192 14 -204 17 -34 53 -44 149 -44 l90 0 0 170 0 170 -45
0 -45 0 0 51 0 50 90 -2 90 -3 0 -263 0 -263 -139 0 c-183 0 -240 20 -281 100
-18 35 -20 60 -20 234 l0 195 48 -3 47 -4 2 -184z m595 -2 l108 -190 0 145 0
145 -42 -1 -43 0 0 45 0 45 90 0 90 0 3 -262 2 -263 -54 0 -55 0 -108 190
-108 189 -3 -189 -2 -190 -50 0 -50 0 0 258 c0 142 3 262 7 266 4 4 30 6 57 4
l51 -3 107 -189z m743 144 l0 -45 -92 -3 -93 -3 0 -59 0 -60 55 0 55 0 0 -44
0 -45 -52 -3 -53 -3 0 -60 0 -60 93 -3 92 -3 0 -44 0 -45 -140 0 -140 0 0 265
0 266 138 -3 137 -3 0 -45z m304 20 c107 -61 105 -231 -4 -285 -22 -11 -42
-21 -44 -22 -2 -1 26 -43 63 -93 36 -50 66 -93 66 -96 0 -3 -25 -4 -57 -2
l-56 3 -88 125 c-49 69 -88 131 -89 138 0 8 21 12 75 12 89 0 115 17 115 75 0
57 -24 69 -143 75 l-102 5 -3 33 c-6 64 -4 66 118 59 87 -4 118 -10 149 -27z
m-611 -22 l-3 -43 -47 -3 -48 -3 0 -215 0 -214 -50 0 -50 0 0 260 0 260 101 0
100 0 -3 -42z"/>
<path d="M1423 3208 c-15 -20 -10 -101 7 -106 16 -6 112 97 104 110 -8 13
-101 9 -111 -4z"/>
<path d="M1211 2934 c-19 -24 -19 -28 -6 -53 25 -46 52 -74 64 -67 26 16 1
146 -29 146 -4 0 -18 -12 -29 -26z"/>
</g>
</svg>
